<?xml version="1.0" encoding="UTF-8" standalone="no"?>
<svg
   xmlns:dc="http://purl.org/dc/elements/1.1/"
   xmlns:cc="http://creativecommons.org/ns#"
   xmlns:rdf="http://www.w3.org/1999/02/22-rdf-syntax-ns#"
   xmlns:svg="http://www.w3.org/2000/svg"
   xmlns="http://www.w3.org/2000/svg"
   xmlns:sodipodi="http://sodipodi.sourceforge.net/DTD/sodipodi-0.dtd"
   xmlns:inkscape="http://www.inkscape.org/namespaces/inkscape"
   width="720"
   height="720"
   viewBox="0 0 190.49992 190.50005"
   version="1.1"
   id="svg8"
   inkscape:version="1.0.1 (3bc2e813f5, 2020-09-07)"
   sodipodi:docname="logoKayakaloSauvetage.svg">
  <defs
     id="defs2" />
  <sodipodi:namedview
     id="base"
     pagecolor="#ffffff"
     bordercolor="#666666"
     borderopacity="1.0"
     inkscape:pageopacity="0.0"
     inkscape:pageshadow="2"
     inkscape:zoom="0.80332978"
     inkscape:cx="418.48622"
     inkscape:cy="385.79744"
     inkscape:document-units="px"
     inkscape:current-layer="layer1"
     inkscape:document-rotation="0"
     showgrid="false"
     units="px"
     inkscape:window-width="1920"
     inkscape:window-height="1017"
     inkscape:window-x="-8"
     inkscape:window-y="123"
     inkscape:window-maximized="1"
     inkscape:object-paths="true"
     inkscape:snap-intersection-paths="true"
     inkscape:snap-smooth-nodes="true"
     inkscape:object-nodes="true"
     inkscape:snap-nodes="false" />
  <metadata
     id="metadata5">
    <rdf:RDF>
      <cc:Work
         rdf:about="">
        <dc:format>image/svg+xml</dc:format>
        <dc:type
           rdf:resource="http://purl.org/dc/dcmitype/StillImage" />
        <dc:title></dc:title>
      </cc:Work>
    </rdf:RDF>
  </metadata>
  <g
     inkscape:label="Calque 1"
     inkscape:groupmode="layer"
     id="layer1">
    <rect
       style="fill:#ffffff;fill-opacity:1;stroke:#000000;stroke-width:0.203684;stroke-linejoin:round;stroke-miterlimit:4;stroke-dasharray:0, 2.24053;stroke-dashoffset:0;paint-order:markers stroke fill"
       id="rect849"
       width="189.17706"
       height="189.17706"
       x="0.66145825"
       y="0.66145825"
       ry="15.875" />
    <path
       id="rect847"
       style="fill:none;stroke:#000000;stroke-width:2.64583312;stroke-linejoin:round;stroke-miterlimit:4;stroke-dasharray:none;stroke-dashoffset:2.64583"
       d="M 27.050212,12.875359 H 163.44977 c 7.85288,0 14.17486,6.321984 14.17486,14.174853 V 163.44977 c 0,7.85286 -6.32198,14.17485 -14.17486,14.17485 H 27.050212 c -7.852869,0 -14.174853,-6.32199 -14.174853,-14.17485 V 27.050212 c 0,-7.852869 6.321984,-14.174853 14.174853,-14.174853 z" />
    <path
       id="path1105-2-3-6"
       style="fill:#ff6600;stroke:#000000;stroke-width:0.242277;stroke-linecap:butt;stroke-linejoin:miter;stroke-miterlimit:4;stroke-dasharray:0, 2.66506;stroke-dashoffset:0;stroke-opacity:1"
       d="m 41.788167,21.960427 c -2.927695,-0.0064 -5.665933,2.513636 -6.538676,6.016739 -1.009713,4.053078 0.808864,7.995716 4.061944,8.806236 3.253199,0.810494 6.709041,-1.818273 7.718837,-5.871472 1.009721,-4.053097 -0.808854,-7.995716 -4.061944,-8.806237 -0.38451,-0.09578 -0.779781,-0.14444 -1.180161,-0.145266 z m -2.68541,16.989764 c -2.741875,-0.01694 -5.44843,0.214932 -8.112065,0.745762 -6.405931,9.598966 -3.905471,22.703634 -7.238069,33.476515 8.45351,2.800277 17.826216,3.629304 27.691183,-0.345437 C 49.215438,67.708876 46.140607,62.281206 45.7479,56.788878 l 0.18384,-1.697492 -1.467625,2.13634 c 1.253904,-0.745265 1.190569,-0.592412 6.997178,-4.441793 1.461948,1.808833 3.765382,4.244771 5.692926,6.023505 6.768173,-1.754252 10.729617,-6.935509 15.483204,-10.461375 l -2.832272,-2.871217 c -5.093193,2.150606 -6.623984,6.272315 -11.670942,7.941586 -0.803581,-0.986829 -1.454321,-1.406356 -2.704182,-3.28794 0,0 6.903284,-4.025718 4.972407,-6.279368 -1.838886,-2.14625 -7.648665,2.627857 -7.648665,2.627857 -1.255989,-1.586996 -1.730368,-3.691267 -5.326003,-6.783028 -2.805661,-0.463407 -5.583136,-0.728896 -8.325009,-0.745762 z m 7.159042,7.858426 2.244205,2.793469 -4.85006,2.469173 2.291918,-1.165042 z"
       sodipodi:nodetypes="cssssccccccccccccccscccccccc" />
    <rect
       style="opacity:1;fill:#ffffff;fill-opacity:1;fill-rule:nonzero;stroke:#000000;stroke-width:0.311773;stroke-linejoin:round;stroke-miterlimit:4;stroke-dasharray:0, 3.42949;stroke-dashoffset:0;paint-order:markers stroke fill"
       id="rect1231"
       width="108.35323"
       height="8.8304214"
       x="38.453781"
       y="173.99489"
       ry="3.9246356" />
    <rect
       style="opacity:1;fill:#ffffff;fill-opacity:1;fill-rule:nonzero;stroke:#000000;stroke-width:0.328987;stroke-linejoin:round;stroke-miterlimit:4;stroke-dasharray:0, 3.61886;stroke-dashoffset:0;paint-order:markers stroke fill"
       id="rect1231-1"
       width="105.41847"
       height="10.106104"
       x="40.914177"
       y="8.0597315"
       ry="4.4916062" />
    <text
       xml:space="preserve"
       style="font-style:normal;font-variant:normal;font-weight:normal;font-stretch:normal;font-size:21.1667px;line-height:1.25;font-family:Arial;-inkscape-font-specification:'Arial, Normal';font-variant-ligatures:normal;font-variant-caps:normal;font-variant-numeric:normal;font-variant-east-asian:normal;fill:#000000;fill-opacity:1;stroke:none;stroke-width:0.188077;stroke-miterlimit:4;stroke-dasharray:none"
       x="41.554085"
       y="182.90398"
       id="text1235-7"><tspan
         sodipodi:role="line"
         id="tspan1233-4"
         x="41.554085"
         y="182.90398"
         style="font-style:normal;font-variant:normal;font-weight:normal;font-stretch:normal;font-size:21.1667px;font-family:Arial;-inkscape-font-specification:'Arial, Normal';font-variant-ligatures:normal;font-variant-caps:normal;font-variant-numeric:normal;font-variant-east-asian:normal;stroke-width:0.188077;stroke-miterlimit:4;stroke-dasharray:none">kayakalo.fr</tspan></text>
    <path
       id="path1490-9"
       style="fill:#ff6600;fill-rule:evenodd;stroke-width:0.210542"
       d="m 18.485616,34.052522 v 39.579383 c 26.157746,30.667585 48.530733,50.674555 66.421646,61.009765 l 17.257118,9.24253 -6.824021,-16.69307 c 0,0 -1.34909,-2.77794 -2.083017,-4.25549 -4.80601,-8.01952 -3.004814,-5.5685 -14.55941,-21.60726 C 61.115457,76.922342 38.066236,52.736332 18.485616,34.052522 Z m 14.614779,25.875987 c 0.263906,-4.84e-4 0.531946,0.0093 0.803491,0.02886 1.629221,0.118099 3.389833,0.599316 5.190058,1.424332 5.155989,2.363066 10.046294,7.264396 12.769771,12.799109 3.132977,6.366931 3.619027,12.299477 -0.56784,14.704686 -8.313754,0.901003 -15.916584,-2.498729 -24.445978,-14.789392 -2.855574,-7.491698 -0.631753,-13.631763 5.471609,-14.134953 0.255215,-0.02106 0.51498,-0.03213 0.778889,-0.03266 z"
       sodipodi:nodetypes="ccccccscsccscccs" />
    <path
       style="opacity:1;fill:#ff6600;fill-opacity:1;fill-rule:evenodd;stroke:#000000;stroke-width:0.134241;stroke-miterlimit:4;stroke-dasharray:0, 1.47664;stroke-dashoffset:0"
       d="m 94.514549,160.72161 c -4.56392,0.0468 -8.739317,1.10636 -9.509896,2.62106 -0.01127,0.0209 -0.0027,0.0416 -0.01227,0.0624 h 3.7397 c 0.734755,-0.98412 3.826343,-1.62165 6.934271,-1.48253 2.625723,0.11754 4.623766,0.72436 5.490056,1.48254 0.95501,1.33687 4.34042,2.40862 8.5441,2.63998 0.65893,0.0362 1.31901,0.0503 1.97088,0.0434 4.56394,-0.0468 8.73885,-1.10636 9.50942,-2.62105 0.0113,-0.0209 0.003,-0.0416 0.0127,-0.0624 0.73476,-0.98413 3.82635,-1.62166 6.93428,-1.48254 2.62572,0.11755 4.62375,0.72436 5.49006,1.48254 0.955,1.33687 4.34043,2.40862 8.5441,2.63997 0.65891,0.0363 1.319,0.0503 1.97087,0.0434 4.56393,-0.0468 8.73884,-1.10634 9.50943,-2.62103 0.0113,-0.0209 0.003,-0.0416 0.0127,-0.0625 0.73476,-0.98413 3.82588,-1.62167 6.9338,-1.48252 2.62573,0.11752 4.62424,0.72434 5.49056,1.48252 h 3.87272 c -0.95499,-1.33687 -4.33995,-2.4086 -8.54362,-2.63998 -0.65892,-0.0363 -1.31853,-0.0503 -1.9704,-0.0435 h -4.8e-4 c -4.56394,0.0468 -8.73932,1.10637 -9.5099,2.62107 -0.0113,0.0209 -0.003,0.0416 -0.0122,0.0625 -0.73475,0.98414 -3.82636,1.62166 -6.93427,1.48253 -2.62575,-0.11753 -4.62424,-0.72436 -5.49054,-1.48253 -0.95499,-1.33688 -4.33994,-2.40862 -8.54362,-2.63998 -0.65893,-0.0363 -1.31854,-0.0502 -1.97041,-0.0435 h -4.8e-4 c -4.56391,0.0468 -8.73934,1.10637 -9.5099,2.62107 -0.0113,0.0209 -0.003,0.0416 -0.0122,0.0624 -0.73474,0.98415 -3.82632,1.62167 -6.93428,1.48253 -2.62569,-0.11753 -4.62422,-0.72436 -5.49052,-1.48253 -0.95499,-1.33688 -4.33994,-2.40862 -8.543623,-2.63998 -0.658922,-0.0363 -1.318542,-0.0503 -1.970409,-0.0435 z"
       id="path881" />
    <path
       style="opacity:1;fill:#ff6600;fill-opacity:1;fill-rule:evenodd;stroke:#000000;stroke-width:0.135337;stroke-miterlimit:4;stroke-dasharray:0, 1.4887;stroke-dashoffset:0"
       d="m 97.139057,161.0401 c 0.0543,-0.006 0.11574,-0.002 0.17652,4.9e-4 -0.1377,0.03 -0.27993,0.0579 -0.42459,0.0845 0.0641,-0.0482 0.14828,-0.0753 0.24807,-0.085 z"
       id="path879" />
    <path
       style="opacity:1;fill:#ff6600;fill-opacity:1;fill-rule:evenodd;stroke:#000000;stroke-width:0.134241;stroke-miterlimit:4;stroke-dasharray:0, 1.47664;stroke-dashoffset:0"
       d="m 94.192307,135.76895 c -0.307492,0.01 -0.607135,0.057 -0.845135,0.16988 -0.654467,0.31038 -1.796746,1.51944 -1.796746,1.51944 1.588545,5.86678 3.403017,11.68861 6.397661,17.27416 5.778593,-0.99482 11.789043,-2.53688 17.292933,-4.90516 0.48172,4.2426 0.0439,6.75263 -0.30978,9.32437 -1.17075,0.20805 -2.54987,0.30045 -3.93372,0.2385 -2.62573,-0.11755 -4.62424,-0.72436 -5.49053,-1.48254 -0.95499,-1.33687 -4.33995,-2.40859 -8.543633,-2.63997 -0.65892,-0.0362 -1.318526,-0.0503 -1.970401,-0.0435 h -4.85e-4 c -4.563921,0.0468 -8.739319,1.10636 -9.509896,2.62106 -0.01127,0.0209 -0.0027,0.0416 -0.01227,0.0624 h 3.739701 c 0.734756,-0.98412 3.826342,-1.62165 6.934261,-1.48252 2.62573,0.11753 4.623763,0.72435 5.490083,1.48252 0.95498,1.33688 4.34041,2.40862 8.5441,2.64 0.65891,0.0363 1.31899,0.0503 1.97086,0.0435 4.56393,-0.0468 8.73885,-1.10638 9.50944,-2.62108 0.0113,-0.0209 0.003,-0.0416 0.0127,-0.0624 0.73476,-0.98412 3.82634,-1.62165 6.93427,-1.48252 2.62572,0.11753 4.62376,0.72435 5.49006,1.48252 0.955,1.33688 4.34042,2.40862 8.5441,2.64 0.65891,0.0363 1.319,0.0503 1.97088,0.0435 4.56393,-0.0468 8.73884,-1.10637 9.50941,-2.62106 0.0113,-0.0209 0.003,-0.0416 0.0127,-0.0625 0.73476,-0.98413 3.82588,-1.62166 6.93381,-1.48253 2.62572,0.11753 4.62423,0.72435 5.49053,1.48253 h 3.8727 c -0.95499,-1.33688 -4.33994,-2.4086 -8.54362,-2.63998 -0.65893,-0.0363 -1.31855,-0.0503 -1.9704,-0.0435 h -4.9e-4 c -4.56393,0.0468 -8.73932,1.10635 -9.50991,2.62105 -0.0113,0.0209 -0.003,0.0416 -0.0122,0.0625 -0.73474,0.98415 -3.82635,1.62167 -6.93427,1.48254 -1.27056,-0.0568 -2.39229,-0.22927 -3.31192,-0.47699 0.0459,-0.0102 0.0916,-0.0204 0.14197,-0.034 0.20939,-6.09908 -1.39228,-11.04083 -5.12713,-15.4495 -6.46882,-0.77057 -12.93757,-1.13782 -19.4064,-0.21342 -4.72061,2.2063 -10.80667,4.52228 -15.24791,5.33155 -1.969121,-4.30518 -3.090238,-8.58276 -4.691775,-12.58238 0,0 -0.63366,-0.1671 -1.315497,-0.19449 -0.102283,-0.004 -0.205555,-0.006 -0.308058,-0.002 z"
       id="path877"
       sodipodi:nodetypes="ssccccsccsscccscscccscscccsccsssccccccccccss" />
    <path
       style="opacity:1;fill:#ff6600;fill-opacity:1;fill-rule:evenodd;stroke:#000000;stroke-width:0.134241;stroke-miterlimit:4;stroke-dasharray:0, 1.47664;stroke-dashoffset:0"
       d="m 126.4882,125.52322 c -3.33826,0.0251 -6.0338,3.40391 -6.03378,7.56316 -1.6e-4,4.17733 2.71787,7.56379 6.07069,7.56364 3.35262,-1.8e-4 6.07036,-3.38654 6.0702,-7.56364 -4e-5,-4.17691 -2.71771,-7.56298 -6.0702,-7.56316 -0.0122,-4e-5 -0.0247,-4e-5 -0.0369,0 z"
       id="path66-0-4-9-5" />
    <path
       id="path16-8-86-6-8-4"
       style="fill:#ff6600;fill-rule:evenodd;stroke-width:0.210542"
       d="m 61.873784,33.523483 -10.161966,0.582037 6.527789,7.885401 c 0.03315,0.03443 0.06565,0.06845 0.09937,0.103158 l 0.05678,0.05868 4.72e-4,-0.0033 c 6.681406,6.848219 23.145598,17.236681 47.122181,29.195957 21.30238,10.625388 44.89324,20.668019 66.50682,28.635749 V 69.381623 C 130.81302,50.70192 86.35957,35.55873 65.790459,33.70756 64.345095,33.577521 63.037746,33.516058 61.873784,33.523483 Z M 138.3462,60.955827 c 5.67166,-0.02463 12.16977,2.365576 16.96846,6.241506 7.28505,5.884199 8.48132,13.328305 2.67169,16.626823 -5.80977,3.298728 -16.4259,1.202107 -23.71109,-4.682312 -7.28504,-5.884292 -8.48063,-13.328407 -2.67075,-16.626826 1.78153,-1.011441 4.10135,-1.547689 6.74169,-1.559191 z" />
    <path
       id="path66-0-0-0-6"
       style="opacity:1;fill:#ff6600;fill-opacity:1;fill-rule:evenodd;stroke:#000000;stroke-width:0.134241;stroke-miterlimit:4;stroke-dasharray:0, 1.47664;stroke-dashoffset:0"
       d="m 172.02524,107.32087 c -2.49289,-0.14568 -4.3995,-0.72636 -5.23595,-1.4584 -0.955,-1.33687 -4.34043,-2.40861 -8.5441,-2.63998 -0.65892,-0.0363 -1.31852,-0.0503 -1.9704,-0.0434 h -4.7e-4 c -4.56393,0.0468 -8.73932,1.10634 -9.5099,2.62103 -0.73475,0.98414 -3.82586,1.62167 -6.9338,1.48255 -2.62572,-0.11757 -4.62423,-0.72438 -5.49053,-1.48255 -0.955,-1.33686 -4.33994,-2.40859 -8.54363,-2.63997 -0.65892,-0.0363 -1.31853,-0.0503 -1.9704,-0.0435 h -4.8e-4 c -4.56393,0.0468 -8.73932,1.10638 -9.5099,2.62107 -0.0113,0.0209 -0.003,0.0416 -0.0123,0.0625 h 3.73969 c 0.73476,-0.98412 3.82589,-1.62164 6.93381,-1.48253 2.62572,0.11756 4.62422,0.72437 5.49054,1.48253 0.95498,1.33688 4.34041,2.40861 8.54409,2.63999 0.65893,0.0363 1.31901,0.0503 1.97088,0.0435 4.56391,-0.0468 8.73884,-1.10636 9.50942,-2.62104 0.73474,-0.98412 3.82635,-1.62166 6.93427,-1.48254 2.62573,0.11755 4.62423,0.72437 5.49053,1.48254 0.95499,1.33686 4.33995,2.4086 8.54363,2.63998 0.1889,0.0104 0.37614,0.006 0.565,0.0123 z" />
    <path
       id="path1573"
       style="opacity:1;fill:#ff6600;fill-opacity:1;fill-rule:evenodd;stroke:#000000;stroke-width:0.134241;stroke-miterlimit:4;stroke-dasharray:0, 1.47664;stroke-dashoffset:0"
       d="m 172.02524,101.71451 c -2.24213,-0.19139 -3.96687,-0.73042 -4.74572,-1.41207 -0.95499,-1.336902 -4.3404,-2.408647 -8.54409,-2.640027 -0.65893,-0.0363 -1.31853,-0.0503 -1.9704,-0.0435 h -4.8e-4 c -4.56392,0.0468 -8.73932,1.10637 -9.50989,2.621087 -0.73475,0.98417 -3.82588,1.62172 -6.93381,1.48259 -2.62572,-0.11755 -4.62422,-0.72439 -5.49053,-1.48259 -0.955,-1.336917 -4.33995,-2.408647 -8.54362,-2.640027 -0.65892,-0.0363 -1.31853,-0.0503 -1.97041,-0.0435 h -4.8e-4 c -4.56393,0.0468 -8.73932,1.106345 -9.50989,2.621087 -0.0113,0.0209 -0.003,0.0416 -0.0122,0.0625 h 3.7397 c 0.73475,-0.984141 3.82588,-1.621712 6.9338,-1.482577 2.62572,0.11756 4.62422,0.724402 5.49053,1.482577 0.955,1.33692 4.34042,2.40866 8.5441,2.64004 0.65893,0.0363 1.31901,0.0503 1.97088,0.0434 4.56392,-0.0468 8.73886,-1.10637 9.50942,-2.6211 0.73477,-0.984161 3.82635,-1.621722 6.93429,-1.482582 2.62571,0.11755 4.62422,0.72441 5.49053,1.482582 0.95497,1.33692 4.33995,2.40866 8.54362,2.64002 0.025,9.4e-4 0.0498,1.1e-4 0.0748,0.002 z" />
    <path
       id="path1585-9"
       style="fill:#ff6600;stroke:#000000;stroke-width:0.901093;stroke-linecap:butt;stroke-linejoin:miter;stroke-miterlimit:4;stroke-dasharray:0, 9.91208;stroke-dashoffset:0;stroke-opacity:1"
       d="m 128.46456,84.331806 h -0.0472 c 0.33213,1.187675 0.37234,2.095289 -0.44876,2.979619 -1.45302,1.398186 -2.08964,1.789156 -2.26158,2.979583 -0.29642,1.497935 0.56481,1.79738 1.34987,2.295016 2.18741,0.230586 2.34943,-1.027863 2.75255,-1.892002 0.0335,-5.016622 -0.80127,-5.174021 -1.34458,-6.362216 z" />
    <path
       id="path1585-9-9"
       style="fill:#ff6600;stroke:#000000;stroke-width:0.901094;stroke-linecap:butt;stroke-linejoin:miter;stroke-miterlimit:4;stroke-dasharray:0, 9.91208;stroke-dashoffset:0;stroke-opacity:1"
       d="m 137.5595,88.202918 h -0.0472 c 0.33213,1.187675 0.37234,2.095289 -0.44876,2.979619 -1.45302,1.398186 -2.08964,1.789156 -2.26158,2.979583 -0.29642,1.497935 0.56481,1.797381 1.34987,2.295016 2.18741,0.230587 2.34943,-1.027863 2.75255,-1.892001 0.0335,-5.016623 -0.80127,-5.174022 -1.34458,-6.362217 z" />
    <path
       id="path1585-9-2"
       style="fill:#ff6600;stroke:#000000;stroke-width:0.901094;stroke-linecap:butt;stroke-linejoin:miter;stroke-miterlimit:4;stroke-dasharray:0, 9.91208;stroke-dashoffset:0;stroke-opacity:1"
       d="m 146.52582,91.114062 h -0.0472 c 0.33213,1.187675 0.37234,2.095289 -0.44876,2.979619 -1.45302,1.398186 -2.08964,1.789156 -2.26158,2.979583 -0.29642,1.497929 0.56481,1.797389 1.34987,2.295038 2.18741,0.230596 2.34943,-1.027887 2.75255,-1.892024 0.0335,-5.016622 -0.80127,-5.174021 -1.34458,-6.362216 z" />
    <text
       xml:space="preserve"
       style="font-style:normal;font-variant:normal;font-weight:normal;font-stretch:normal;font-size:21.1667px;line-height:1.25;font-family:Arial;-inkscape-font-specification:'Arial, Normal';font-variant-ligatures:normal;font-variant-caps:normal;font-variant-numeric:normal;font-variant-east-asian:normal;fill:#000000;fill-opacity:1;stroke:none;stroke-width:0.187991"
       x="42.476742"
       y="18.363981"
       id="text1235"><tspan
         sodipodi:role="line"
         id="tspan850"
         x="42.476742"
         y="18.363981">sauvetage.</tspan></text>
  </g>
</svg>
